<mxfile host="app.diagrams.net" modified="2022-07-16T03:05:41.786Z" agent="5.0 (Macintosh; Intel Mac OS X 10_15_7) AppleWebKit/537.36 (KHTML, like Gecko) Chrome/103.0.0.0 Safari/537.36" etag="wB7s4WMeZTuJj92rL3-x" version="20.1.1" type="github">
  <diagram id="YnqQtK5fT6dAKDrcnCmn" name="Page-1">
    <mxGraphModel dx="1258" dy="690" grid="1" gridSize="10" guides="1" tooltips="1" connect="1" arrows="1" fold="1" page="1" pageScale="1" pageWidth="850" pageHeight="1100" math="0" shadow="0">
      <root>
        <mxCell id="0" />
        <mxCell id="1" parent="0" />
        <mxCell id="ifVMXw7Uef_25uuYWxH6-1" value="" style="rounded=0;whiteSpace=wrap;html=1;" vertex="1" parent="1">
          <mxGeometry x="60" y="60" width="400" height="380" as="geometry" />
        </mxCell>
        <mxCell id="ifVMXw7Uef_25uuYWxH6-3" value="" style="verticalLabelPosition=bottom;verticalAlign=top;html=1;shape=mxgraph.basic.rect;fillColor2=none;strokeWidth=1;size=20;indent=5;" vertex="1" parent="1">
          <mxGeometry x="160" y="150" width="180" height="40" as="geometry" />
        </mxCell>
        <mxCell id="ifVMXw7Uef_25uuYWxH6-4" value="USER" style="text;html=1;strokeColor=none;fillColor=none;align=center;verticalAlign=middle;whiteSpace=wrap;rounded=0;" vertex="1" parent="1">
          <mxGeometry x="160" y="160" width="180" height="20" as="geometry" />
        </mxCell>
        <mxCell id="ifVMXw7Uef_25uuYWxH6-7" value="" style="verticalLabelPosition=bottom;verticalAlign=top;html=1;shape=mxgraph.basic.rect;fillColor2=none;strokeWidth=1;size=20;indent=5;" vertex="1" parent="1">
          <mxGeometry x="160" y="230" width="180" height="40" as="geometry" />
        </mxCell>
        <mxCell id="ifVMXw7Uef_25uuYWxH6-8" value="PASSWORD" style="text;html=1;strokeColor=none;fillColor=none;align=center;verticalAlign=middle;whiteSpace=wrap;rounded=0;" vertex="1" parent="1">
          <mxGeometry x="160" y="240" width="180" height="20" as="geometry" />
        </mxCell>
        <mxCell id="ifVMXw7Uef_25uuYWxH6-10" value="LOGIN" style="labelPosition=center;verticalLabelPosition=middle;align=center;html=1;shape=mxgraph.basic.button;dx=10;" vertex="1" parent="1">
          <mxGeometry x="200" y="310" width="100" height="60" as="geometry" />
        </mxCell>
        <mxCell id="ifVMXw7Uef_25uuYWxH6-11" value="&lt;h1&gt;Authentication&lt;/h1&gt;" style="text;html=1;strokeColor=none;fillColor=none;spacing=5;spacingTop=-20;whiteSpace=wrap;overflow=hidden;rounded=0;" vertex="1" parent="1">
          <mxGeometry x="60" y="20" width="190" height="120" as="geometry" />
        </mxCell>
      </root>
    </mxGraphModel>
  </diagram>
</mxfile>
